<mxfile host="app.diagrams.net" modified="2023-10-24T05:10:50.674Z" agent="Mozilla/5.0 (Windows NT 10.0; Win64; x64) AppleWebKit/537.36 (KHTML, like Gecko) Chrome/118.0.0.0 Safari/537.36" etag="YoMZJzKFMs02KJ9fpJMw" version="22.0.6" type="github">
  <diagram name="Page-1" id="7PamReiSG4MzQoHYQMnp">
    <mxGraphModel dx="1050" dy="530" grid="1" gridSize="10" guides="1" tooltips="1" connect="1" arrows="1" fold="1" page="1" pageScale="1" pageWidth="850" pageHeight="1100" math="0" shadow="0">
      <root>
        <mxCell id="0" />
        <mxCell id="1" parent="0" />
        <mxCell id="iSJuxax5wpQDhs0aQtZp-54" style="edgeStyle=orthogonalEdgeStyle;rounded=0;orthogonalLoop=1;jettySize=auto;html=1;entryX=0.5;entryY=1;entryDx=0;entryDy=0;" edge="1" parent="1" source="iSJuxax5wpQDhs0aQtZp-37" target="iSJuxax5wpQDhs0aQtZp-51">
          <mxGeometry relative="1" as="geometry" />
        </mxCell>
        <mxCell id="iSJuxax5wpQDhs0aQtZp-65" value="Contributions, Wealth" style="edgeLabel;html=1;align=center;verticalAlign=middle;resizable=0;points=[];" vertex="1" connectable="0" parent="iSJuxax5wpQDhs0aQtZp-54">
          <mxGeometry x="0.1429" y="-2" relative="1" as="geometry">
            <mxPoint as="offset" />
          </mxGeometry>
        </mxCell>
        <mxCell id="iSJuxax5wpQDhs0aQtZp-37" value="Young Households" style="rounded=1;whiteSpace=wrap;html=1;fillColor=#d5e8d4;strokeColor=#82b366;fontColor=#006633;fontStyle=1" vertex="1" parent="1">
          <mxGeometry x="305" y="300" width="120" height="60" as="geometry" />
        </mxCell>
        <mxCell id="iSJuxax5wpQDhs0aQtZp-59" style="edgeStyle=orthogonalEdgeStyle;rounded=0;orthogonalLoop=1;jettySize=auto;html=1;entryX=0.75;entryY=1;entryDx=0;entryDy=0;" edge="1" parent="1" source="iSJuxax5wpQDhs0aQtZp-51" target="iSJuxax5wpQDhs0aQtZp-52">
          <mxGeometry relative="1" as="geometry" />
        </mxCell>
        <mxCell id="iSJuxax5wpQDhs0aQtZp-63" value="Benefits, Wealth" style="edgeLabel;html=1;align=center;verticalAlign=middle;resizable=0;points=[];" vertex="1" connectable="0" parent="iSJuxax5wpQDhs0aQtZp-59">
          <mxGeometry x="0.2" y="-1" relative="1" as="geometry">
            <mxPoint as="offset" />
          </mxGeometry>
        </mxCell>
        <mxCell id="iSJuxax5wpQDhs0aQtZp-61" style="edgeStyle=orthogonalEdgeStyle;rounded=0;orthogonalLoop=1;jettySize=auto;html=1;entryX=0;entryY=0.5;entryDx=0;entryDy=0;endArrow=none;endFill=0;" edge="1" parent="1" source="iSJuxax5wpQDhs0aQtZp-51" target="iSJuxax5wpQDhs0aQtZp-60">
          <mxGeometry relative="1" as="geometry" />
        </mxCell>
        <mxCell id="iSJuxax5wpQDhs0aQtZp-62" value="Investment, Returns" style="edgeLabel;html=1;align=center;verticalAlign=middle;resizable=0;points=[];" vertex="1" connectable="0" parent="iSJuxax5wpQDhs0aQtZp-61">
          <mxGeometry x="-0.1333" y="-1" relative="1" as="geometry">
            <mxPoint x="8" y="19" as="offset" />
          </mxGeometry>
        </mxCell>
        <mxCell id="iSJuxax5wpQDhs0aQtZp-51" value="FF" style="rounded=1;whiteSpace=wrap;html=1;fillColor=#dae8fc;strokeColor=#6c8ebf;fontColor=#003366;fontStyle=1" vertex="1" parent="1">
          <mxGeometry x="400" y="160" width="120" height="60" as="geometry" />
        </mxCell>
        <mxCell id="iSJuxax5wpQDhs0aQtZp-52" value="Retired Households" style="rounded=1;whiteSpace=wrap;html=1;fillColor=#d5e8d4;strokeColor=#82b366;fontColor=#006633;fontStyle=1" vertex="1" parent="1">
          <mxGeometry x="305" y="30" width="120" height="60" as="geometry" />
        </mxCell>
        <mxCell id="iSJuxax5wpQDhs0aQtZp-58" style="edgeStyle=orthogonalEdgeStyle;rounded=0;orthogonalLoop=1;jettySize=auto;html=1;" edge="1" parent="1" source="iSJuxax5wpQDhs0aQtZp-56" target="iSJuxax5wpQDhs0aQtZp-52">
          <mxGeometry relative="1" as="geometry" />
        </mxCell>
        <mxCell id="iSJuxax5wpQDhs0aQtZp-64" value="Benefits, Wealth" style="edgeLabel;html=1;align=center;verticalAlign=middle;resizable=0;points=[];" vertex="1" connectable="0" parent="iSJuxax5wpQDhs0aQtZp-58">
          <mxGeometry x="-0.5355" y="2" relative="1" as="geometry">
            <mxPoint x="24" y="-18" as="offset" />
          </mxGeometry>
        </mxCell>
        <mxCell id="iSJuxax5wpQDhs0aQtZp-56" value="Government" style="swimlane;whiteSpace=wrap;html=1;swimlaneLine=0;gradientColor=none;swimlaneFillColor=#FFE599;fillColor=#FFD966;" vertex="1" parent="1">
          <mxGeometry x="100" y="100" width="190" height="140" as="geometry" />
        </mxCell>
        <mxCell id="iSJuxax5wpQDhs0aQtZp-57" value="PAYG" style="rounded=1;whiteSpace=wrap;html=1;fillColor=#dae8fc;strokeColor=#6c8ebf;fontColor=#003366;fontStyle=1" vertex="1" parent="iSJuxax5wpQDhs0aQtZp-56">
          <mxGeometry x="20" y="60" width="120" height="60" as="geometry" />
        </mxCell>
        <mxCell id="iSJuxax5wpQDhs0aQtZp-53" style="edgeStyle=orthogonalEdgeStyle;rounded=0;orthogonalLoop=1;jettySize=auto;html=1;" edge="1" parent="1" source="iSJuxax5wpQDhs0aQtZp-37">
          <mxGeometry relative="1" as="geometry">
            <mxPoint x="220" y="220" as="targetPoint" />
          </mxGeometry>
        </mxCell>
        <mxCell id="iSJuxax5wpQDhs0aQtZp-66" value="Contributions" style="edgeLabel;html=1;align=center;verticalAlign=middle;resizable=0;points=[];" vertex="1" connectable="0" parent="iSJuxax5wpQDhs0aQtZp-53">
          <mxGeometry x="0.2513" y="-2" relative="1" as="geometry">
            <mxPoint as="offset" />
          </mxGeometry>
        </mxCell>
        <mxCell id="iSJuxax5wpQDhs0aQtZp-60" value="Foreign Economy" style="rounded=1;whiteSpace=wrap;html=1;fillColor=#d5e8d4;strokeColor=#82b366;fontColor=#006633;fontStyle=1" vertex="1" parent="1">
          <mxGeometry x="640" y="160" width="120" height="60" as="geometry" />
        </mxCell>
      </root>
    </mxGraphModel>
  </diagram>
</mxfile>
